<svg version="1.1" id="Layer_1" xmlns="http://www.w3.org/2000/svg" xmlns:xlink="http://www.w3.org/1999/xlink" x="0px" y="0px"
	 width="100%" viewBox="0 0 512 512" enable-background="new 0 0 512 512" xml:space="preserve">
<path fill="#000000" opacity="1.000000" stroke="none" 
	d="
M1.000002,322.000000 
	C1.000000,215.040359 1.000000,108.080727 1.000000,1.060547 
	C171.561905,1.060547 342.123840,1.060547 513.000000,1.060547 
	C513.000000,108.354561 513.000000,215.709427 512.633667,323.757874 
	C511.921692,324.103760 511.344818,323.802917 511.263641,323.401764 
	C507.496155,304.782166 499.401672,288.473114 484.060577,276.877411 
	C477.847351,272.181061 470.105774,269.506744 463.033875,265.462891 
	C462.339417,256.225830 461.816345,247.423950 460.959839,238.654648 
	C460.157837,230.443481 459.124542,222.249283 457.951080,214.082382 
	C457.371307,210.047455 452.804077,206.528900 449.022858,207.079025 
	C446.037231,207.513397 443.128052,208.472748 439.755127,209.112457 
	C425.700928,210.328552 423.043976,212.180206 426.140533,226.539734 
	C428.806366,238.901611 430.721527,251.425369 432.583252,263.754852 
	C417.551880,260.027557 403.464783,262.295410 390.074890,268.512329 
	C370.703033,277.506683 358.106049,293.444061 348.150299,311.641876 
	C334.483917,336.622253 328.583374,364.078186 322.810425,391.636932 
	C319.977173,405.162079 316.476959,418.738281 311.426361,431.561859 
	C304.472900,449.216766 291.848846,462.782074 275.780762,472.994537 
	C272.402679,475.141541 271.432281,478.397278 272.071777,482.027313 
	C272.636353,485.232117 274.426056,487.595459 278.064575,488.112488 
	C291.664246,490.044922 305.251892,492.062195 319.106079,494.400146 
	C326.458282,495.168365 333.558868,496.048767 340.635986,495.889099 
	C350.843811,495.658722 361.117004,495.264709 371.211578,493.858612 
	C383.453674,492.153412 395.742828,490.067108 407.646393,486.810699 
	C428.063385,481.225250 446.279388,471.245026 461.885132,456.674988 
	C474.293640,445.090027 484.010956,431.633575 492.181946,416.780212 
	C500.178070,402.244873 506.778351,387.318115 510.147614,371.017700 
	C510.584198,368.905518 512.024597,367.000824 513.000000,365.000000 
	C513.000000,414.306610 513.000000,463.613190 513.000000,512.959900 
	C342.452576,512.959900 171.905121,512.959900 1.000000,512.959900 
	C1.000000,465.312500 1.000000,417.624084 1.390640,369.324219 
	C2.179373,369.548859 2.718423,370.347412 2.952804,371.227173 
	C4.546890,377.210388 5.577727,383.395630 7.717891,389.171997 
	C15.115996,409.139893 25.629614,427.378326 39.243771,443.799805 
	C53.090549,460.501862 69.010597,474.527283 89.660889,482.231842 
	C106.779503,488.618774 124.229942,490.693207 142.450317,485.074829 
	C152.945374,482.902100 161.214890,477.414978 169.251190,470.988464 
	C184.879715,478.116364 200.096771,485.258240 215.477081,492.029358 
	C220.451172,494.219147 224.011795,492.097137 226.059784,486.933929 
	C227.244247,483.947784 228.568222,481.016968 229.900711,477.672546 
	C235.169556,466.368622 232.858139,462.040863 222.083359,458.842621 
	C209.542572,455.120148 197.350403,450.223114 185.142426,445.536530 
	C202.154404,426.872925 205.631363,405.203369 200.280396,381.723053 
	C196.609360,365.614410 188.465759,351.527832 179.087357,338.017212 
	C168.084229,322.165985 154.247040,309.030151 140.361252,295.891907 
	C129.130966,285.266174 117.579094,274.963470 106.678375,264.011353 
	C97.192787,254.481064 90.645576,242.953857 86.765327,229.597748 
	C85.126930,221.075027 83.362862,212.953674 82.105164,204.754639 
	C81.537415,201.053497 79.994621,198.367188 76.586021,197.344574 
	C73.371239,196.380112 70.391975,196.745483 67.654045,199.686920 
	C53.624157,214.759430 41.338036,231.146774 30.810324,248.784637 
	C18.516502,269.381348 8.547545,291.009613 3.857707,314.771820 
	C3.364286,317.271851 1.974123,319.594849 1.000002,322.000000 
M103.169083,169.697906 
	C103.641472,170.160721 104.217026,170.556015 104.570724,171.096497 
	C109.586258,178.760727 114.911079,179.061127 121.718704,172.899658 
	C131.882462,163.700607 142.439514,154.936127 152.972183,146.750000 
	C159.653839,167.527130 173.764740,181.190659 193.796448,189.008530 
	C212.933380,196.477234 232.799072,195.847397 252.783997,194.055511 
	C268.339447,192.660797 283.291840,188.742661 298.096893,184.050064 
	C312.393799,179.518539 326.603729,174.678391 341.023926,170.579117 
	C356.914154,166.061951 373.172729,165.050446 389.301910,169.141708 
	C397.299896,171.170456 404.925171,174.639801 412.778564,177.280518 
	C416.065826,178.385864 419.463562,179.173920 422.413300,176.110107 
	C425.435425,172.971085 425.623016,169.562195 424.056183,165.704712 
	C419.349854,154.117813 414.722992,142.498627 410.010498,130.283173 
	C409.683411,129.824997 409.356323,129.366821 409.027557,128.976517 
	C409.027557,128.976517 409.095276,128.971786 409.009796,128.237503 
	C399.434387,107.626701 387.679352,88.461853 372.827179,71.127640 
	C359.496796,55.569500 344.187622,42.647778 326.130951,33.034557 
	C306.147217,22.395399 284.445129,18.189924 262.139557,18.218521 
	C248.402374,18.236130 234.511169,19.753323 220.965683,22.156233 
	C193.458435,27.035898 169.709015,39.271503 152.548721,62.031769 
	C139.783859,78.962219 135.078171,98.082657 138.798782,119.709579 
	C137.131302,120.688248 135.374420,121.542412 133.810562,122.665398 
	C121.850098,131.254059 109.840317,139.778427 98.034142,148.575439 
	C93.097420,152.253876 93.200958,156.910751 96.604637,161.165909 
	C98.703613,163.789948 100.782082,166.430405 103.169083,169.697906 
z"/>
<path fill="#6BCB44" opacity="1.000000" stroke="none" 
	d="
M463.059662,265.912292 
	C470.105774,269.506744 477.847351,272.181061 484.060577,276.877411 
	C499.401672,288.473114 507.496155,304.782166 511.263641,323.401764 
	C511.344818,323.802917 511.921692,324.103760 512.633667,324.225708 
	C513.000000,337.354218 513.000000,350.708466 513.000000,364.531342 
	C512.024597,367.000824 510.584198,368.905518 510.147614,371.017700 
	C506.778351,387.318115 500.178070,402.244873 492.181946,416.780212 
	C484.010956,431.633575 474.293640,445.090027 461.885132,456.674988 
	C446.279388,471.245026 428.063385,481.225250 407.646393,486.810699 
	C395.742828,490.067108 383.453674,492.153412 371.211578,493.858612 
	C361.117004,495.264709 350.843811,495.658722 340.635986,495.889099 
	C333.558868,496.048767 326.458282,495.168365 319.222534,494.073364 
	C320.655853,491.736084 322.048676,489.835632 323.842896,488.458069 
	C339.774323,476.226166 352.688599,461.414856 358.693939,442.103821 
	C363.812317,425.644745 367.498779,408.684814 370.911499,391.763489 
	C376.525848,363.925842 383.341858,336.583954 397.628021,311.680115 
	C406.785400,295.716858 417.990540,281.711182 434.703644,273.346802 
	C434.904724,282.121368 435.178375,290.425415 435.112488,298.726746 
	C434.932190,321.446503 430.981445,343.503479 420.532471,363.770782 
	C415.180420,374.151794 407.656677,383.400848 401.373444,393.325439 
	C400.242920,395.111176 400.374695,397.696075 399.923676,399.912018 
	C402.166595,399.951721 404.654877,400.626617 406.593170,399.877777 
	C409.297974,398.832886 411.591797,396.724213 414.337341,394.882141 
	C430.387543,382.911346 441.342133,367.451233 448.849579,349.444427 
	C459.149261,324.740540 462.357330,298.773132 462.320221,272.244232 
	C462.317261,270.133942 462.801727,268.022949 463.059662,265.912292 
z"/>
<path fill="#4DC321" opacity="1.000000" stroke="none" 
	d="
M142.054718,485.126831 
	C124.229942,490.693207 106.779503,488.618774 89.660889,482.231842 
	C69.010597,474.527283 53.090549,460.501862 39.243771,443.799805 
	C25.629614,427.378326 15.115996,409.139893 7.717891,389.171997 
	C5.577727,383.395630 4.546890,377.210388 2.952804,371.227173 
	C2.718423,370.347412 2.179373,369.548859 1.390640,368.856384 
	C1.000000,353.645782 1.000000,338.291534 1.000002,322.468658 
	C1.974123,319.594849 3.364286,317.271851 3.857707,314.771820 
	C8.547545,291.009613 18.516502,269.381348 30.810324,248.784637 
	C41.338036,231.146774 53.624157,214.759430 67.654045,199.686920 
	C70.391975,196.745483 73.371239,196.380112 76.586021,197.344574 
	C79.994621,198.367188 81.537415,201.053497 82.105164,204.754639 
	C83.362862,212.953674 85.126930,221.075027 86.504700,229.802200 
	C85.186577,231.802658 83.839386,233.109283 82.942673,234.674057 
	C75.166672,248.243423 66.818604,261.536743 59.905998,275.536896 
	C49.622360,296.364441 43.977627,318.695953 43.195572,341.935760 
	C42.340733,367.338501 49.031788,391.026855 61.552742,413.114960 
	C80.295425,446.178864 104.026299,473.636536 142.054718,485.126831 
z"/>
<path fill="#6BCB44" opacity="1.000000" stroke="none" 
	d="
M410.065125,130.892029 
	C414.722992,142.498627 419.349854,154.117813 424.056183,165.704712 
	C425.623016,169.562195 425.435425,172.971085 422.413300,176.110107 
	C419.463562,179.173920 416.065826,178.385864 412.778564,177.280518 
	C404.925171,174.639801 397.299896,171.170456 389.301910,169.141708 
	C373.172729,165.050446 356.914154,166.061951 341.023926,170.579117 
	C326.603729,174.678391 312.393799,179.518539 298.096893,184.050064 
	C283.291840,188.742661 268.339447,192.660797 252.783997,194.055511 
	C232.799072,195.847397 212.933380,196.477234 193.796448,189.008530 
	C173.764740,181.190659 159.653839,167.527130 153.048111,146.055191 
	C161.687637,139.640427 169.922272,133.334290 178.875992,128.309464 
	C206.740463,112.671944 236.287354,103.458344 268.758850,106.968437 
	C273.881622,107.522186 278.975281,108.345184 284.430817,109.013916 
	C288.384705,106.212799 288.596130,104.090607 285.214539,101.764648 
	C283.031830,100.263336 280.618195,99.059242 278.210815,97.929016 
	C254.003754,86.564178 228.833405,86.244225 203.485977,92.532143 
	C191.253967,95.566521 179.468719,100.401779 167.560730,104.094452 
	C169.624756,101.551147 171.374451,99.053871 173.633820,97.166870 
	C184.184799,88.354820 195.702606,81.008141 208.550095,76.038155 
	C236.828186,65.098900 266.158478,61.379707 296.324829,63.846336 
	C315.870667,65.444550 334.152924,71.117981 351.376343,80.489029 
	C372.321594,91.885033 389.681946,107.465706 404.985474,125.546745 
	C406.120239,126.887474 407.714569,127.839211 409.095276,128.971786 
	C409.095276,128.971786 409.027557,128.976517 409.108856,129.216385 
	C409.481812,129.934845 409.773468,130.413437 410.065125,130.892029 
z"/>
<path fill="#6BCB44" opacity="1.000000" stroke="none" 
	d="
M142.450317,485.074829 
	C104.026299,473.636536 80.295425,446.178864 61.552742,413.114960 
	C49.031788,391.026855 42.340733,367.338501 43.195572,341.935760 
	C43.977627,318.695953 49.622360,296.364441 59.905998,275.536896 
	C66.818604,261.536743 75.166672,248.243423 82.942673,234.674057 
	C83.839386,233.109283 85.186577,231.802658 86.585541,230.171890 
	C90.645576,242.953857 97.192787,254.481064 106.678375,264.011353 
	C117.579094,274.963470 129.130966,285.266174 140.361252,295.891907 
	C154.247040,309.030151 168.084229,322.165985 179.087357,338.017212 
	C188.465759,351.527832 196.609360,365.614410 200.280396,381.723053 
	C205.631363,405.203369 202.154404,426.872925 184.777924,445.552124 
	C178.546921,443.231842 172.676544,440.860260 167.108490,437.916809 
	C140.213333,423.699310 116.717072,405.495728 100.717728,379.066010 
	C96.180084,371.570221 92.875969,363.327637 89.049530,355.077606 
	C88.510155,351.738831 87.973412,348.221771 83.941948,348.816986 
	C80.151283,349.376678 80.081093,352.852905 80.124023,355.957214 
	C80.135529,356.789551 80.145401,357.623810 80.208336,358.453247 
	C81.598808,376.777191 87.450165,393.538422 97.545547,408.902863 
	C111.451782,430.067230 130.201355,446.055023 151.227570,459.652740 
	C157.085190,463.440918 163.009445,467.126099 168.903137,470.858521 
	C161.214890,477.414978 152.945374,482.902100 142.450317,485.074829 
z"/>
<path fill="#4DC321" opacity="1.000000" stroke="none" 
	d="
M434.621338,272.875000 
	C417.990540,281.711182 406.785400,295.716858 397.628021,311.680115 
	C383.341858,336.583954 376.525848,363.925842 370.911499,391.763489 
	C367.498779,408.684814 363.812317,425.644745 358.693939,442.103821 
	C352.688599,461.414856 339.774323,476.226166 323.842896,488.458069 
	C322.048676,489.835632 320.655853,491.736084 318.960449,493.720856 
	C305.251892,492.062195 291.664246,490.044922 278.064575,488.112488 
	C274.426056,487.595459 272.636353,485.232117 272.071777,482.027313 
	C271.432281,478.397278 272.402679,475.141541 275.780762,472.994537 
	C291.848846,462.782074 304.472900,449.216766 311.426361,431.561859 
	C316.476959,418.738281 319.977173,405.162079 322.810425,391.636932 
	C328.583374,364.078186 334.483917,336.622253 348.150299,311.641876 
	C358.106049,293.444061 370.703033,277.506683 390.074890,268.512329 
	C403.464783,262.295410 417.551880,260.027557 432.841614,264.051270 
	C433.863983,267.271912 434.242645,270.073456 434.621338,272.875000 
z"/>
<path fill="#4DC322" opacity="1.000000" stroke="none" 
	d="
M409.052551,128.604645 
	C407.714569,127.839211 406.120239,126.887474 404.985474,125.546745 
	C389.681946,107.465706 372.321594,91.885033 351.376343,80.489029 
	C334.152924,71.117981 315.870667,65.444550 296.324829,63.846336 
	C266.158478,61.379707 236.828186,65.098900 208.550095,76.038155 
	C195.702606,81.008141 184.184799,88.354820 173.633820,97.166870 
	C171.374451,99.053871 169.624756,101.551147 167.244553,104.258064 
	C157.625412,109.537315 148.401993,114.325798 139.178574,119.114288 
	C135.078171,98.082657 139.783859,78.962219 152.548721,62.031769 
	C169.709015,39.271503 193.458435,27.035898 220.965683,22.156233 
	C234.511169,19.753323 248.402374,18.236130 262.139557,18.218521 
	C284.445129,18.189924 306.147217,22.395399 326.130951,33.034557 
	C344.187622,42.647778 359.496796,55.569500 372.827179,71.127640 
	C387.679352,88.461853 399.434387,107.626701 409.052551,128.604645 
z"/>
<path fill="#97DC7C" opacity="1.000000" stroke="none" 
	d="
M169.251205,470.988464 
	C163.009445,467.126099 157.085190,463.440918 151.227570,459.652740 
	C130.201355,446.055023 111.451782,430.067230 97.545547,408.902863 
	C87.450165,393.538422 81.598808,376.777191 80.208336,358.453247 
	C80.145401,357.623810 80.135529,356.789551 80.124023,355.957214 
	C80.081093,352.852905 80.151283,349.376678 83.941948,348.816986 
	C87.973412,348.221771 88.510155,351.738831 89.060379,355.534424 
	C89.795036,360.072510 90.276497,363.890259 91.375336,367.521179 
	C99.033539,392.826355 115.253593,412.173462 134.936996,428.899536 
	C159.032898,449.375183 186.787674,463.666901 215.934128,475.370392 
	C220.232925,477.096558 225.181473,477.204590 229.829407,478.061249 
	C228.568222,481.016968 227.244247,483.947784 226.059784,486.933929 
	C224.011795,492.097137 220.451172,494.219147 215.477081,492.029358 
	C200.096771,485.258240 184.879715,478.116364 169.251205,470.988464 
z"/>
<path fill="#97DC7C" opacity="1.000000" stroke="none" 
	d="
M138.988678,119.411926 
	C148.401993,114.325798 157.625412,109.537315 167.165009,104.585220 
	C179.468719,100.401779 191.253967,95.566521 203.485977,92.532143 
	C228.833405,86.244225 254.003754,86.564178 278.210815,97.929016 
	C280.618195,99.059242 283.031830,100.263336 285.214539,101.764648 
	C288.596130,104.090607 288.384705,106.212799 284.154480,108.784592 
	C269.356567,101.814644 254.223801,99.671356 238.780273,100.308907 
	C220.824371,101.050171 203.552780,105.464584 186.875351,112.117111 
	C158.442383,123.458885 133.164886,140.048721 109.162666,158.794250 
	C105.656830,161.532272 103.295746,164.613068 102.869766,169.063507 
	C100.782082,166.430405 98.703613,163.789948 96.604637,161.165909 
	C93.200958,156.910751 93.097420,152.253876 98.034142,148.575439 
	C109.840317,139.778427 121.850098,131.254059 133.810562,122.665398 
	C135.374420,121.542412 137.131302,120.688248 138.988678,119.411926 
z"/>
<path fill="#97DC7C" opacity="1.000000" stroke="none" 
	d="
M434.703644,273.346802 
	C434.242645,270.073456 433.863983,267.271912 433.226929,264.173950 
	C430.721527,251.425369 428.806366,238.901611 426.140533,226.539734 
	C423.043976,212.180206 425.700928,210.328552 439.670563,209.505249 
	C439.985626,213.402695 439.504089,216.891876 440.028046,220.222870 
	C440.878326,225.628387 442.525177,230.902847 443.596069,236.280365 
	C449.722778,267.045990 451.619568,297.892456 444.958679,328.844849 
	C440.076782,351.530579 430.665131,371.997559 415.143829,389.477051 
	C413.827393,390.959595 411.040833,392.570862 414.061493,395.070740 
	C411.591797,396.724213 409.297974,398.832886 406.593170,399.877777 
	C404.654877,400.626617 402.166595,399.951721 399.923676,399.912018 
	C400.374695,397.696075 400.242920,395.111176 401.373444,393.325439 
	C407.656677,383.400848 415.180420,374.151794 420.532471,363.770782 
	C430.981445,343.503479 434.932190,321.446503 435.112488,298.726746 
	C435.178375,290.425415 434.904724,282.121368 434.703644,273.346802 
z"/>
<path fill="#C2EBAF" opacity="1.000000" stroke="none" 
	d="
M414.337341,394.882141 
	C411.040833,392.570862 413.827393,390.959595 415.143829,389.477051 
	C430.665131,371.997559 440.076782,351.530579 444.958679,328.844849 
	C451.619568,297.892456 449.722778,267.045990 443.596069,236.280365 
	C442.525177,230.902847 440.878326,225.628387 440.028046,220.222870 
	C439.504089,216.891876 439.985626,213.402695 440.100342,209.591751 
	C443.128052,208.472748 446.037231,207.513397 449.022858,207.079025 
	C452.804077,206.528900 457.371307,210.047455 457.951080,214.082382 
	C459.124542,222.249283 460.157837,230.443481 460.959839,238.654648 
	C461.816345,247.423950 462.339417,256.225830 463.033875,265.462891 
	C462.801727,268.022949 462.317261,270.133942 462.320221,272.244232 
	C462.357330,298.773132 459.149261,324.740540 448.849579,349.444427 
	C441.342133,367.451233 430.387543,382.911346 414.337341,394.882141 
z"/>
<path fill="#C2EBAE" opacity="1.000000" stroke="none" 
	d="
M103.019424,169.380707 
	C103.295746,164.613068 105.656830,161.532272 109.162666,158.794250 
	C133.164886,140.048721 158.442383,123.458885 186.875351,112.117111 
	C203.552780,105.464584 220.824371,101.050171 238.780273,100.308907 
	C254.223801,99.671356 269.356567,101.814644 283.806091,108.814377 
	C278.975281,108.345184 273.881622,107.522186 268.758850,106.968437 
	C236.287354,103.458344 206.740463,112.671944 178.875992,128.309464 
	C169.922272,133.334290 161.687637,139.640427 152.976639,145.673584 
	C142.439514,154.936127 131.882462,163.700607 121.718704,172.899658 
	C114.911079,179.061127 109.586258,178.760727 104.570724,171.096497 
	C104.217026,170.556015 103.641472,170.160721 103.019424,169.380707 
z"/>
<path fill="#C2EBAF" opacity="1.000000" stroke="none" 
	d="
M229.900696,477.672546 
	C225.181473,477.204590 220.232925,477.096558 215.934128,475.370392 
	C186.787674,463.666901 159.032898,449.375183 134.936996,428.899536 
	C115.253593,412.173462 99.033539,392.826355 91.375336,367.521179 
	C90.276497,363.890259 89.795036,360.072510 89.016998,355.884399 
	C92.875969,363.327637 96.180084,371.570221 100.717728,379.066010 
	C116.717072,405.495728 140.213333,423.699310 167.108490,437.916809 
	C172.676544,440.860260 178.546921,443.231842 184.642456,445.851379 
	C197.350403,450.223114 209.542572,455.120148 222.083359,458.842621 
	C232.858139,462.040863 235.169556,466.368622 229.900696,477.672546 
z"/>
<path fill="#4DC322" opacity="1.000000" stroke="none" 
	d="
M410.037842,130.587601 
	C409.773468,130.413437 409.481812,129.934845 409.109680,129.182449 
	C409.356323,129.366821 409.683411,129.824997 410.037842,130.587601 
z"/>
</svg>