<svg id="elNC4WJcqwp1" xmlns="http://www.w3.org/2000/svg" xmlns:xlink="http://www.w3.org/1999/xlink" viewBox="0 0 512 512" shape-rendering="geometricPrecision" text-rendering="geometricPrecision" project-id="75e3d7546297458ab6bfb89aed14f028" export-id="b6679e766fa64868a08d0e620ed3f0bb" cached="false"><path d="M463.059662,265.912292c7.046112,3.594452,14.787689,6.268769,21.000915,10.965119c15.341095,11.595703,23.435578,27.904755,27.203064,46.524353.081177.401153.658051.701996,1.370026.823944C513,337.354218,513,350.708466,513,364.531342c-.975403,2.469482-2.415802,4.374176-2.852386,6.486358-3.369263,16.300415-9.969544,31.227173-17.965668,45.762512-8.17099,14.853363-17.888306,28.309815-30.296814,39.894776-15.605744,14.570038-33.821747,24.550262-54.238739,30.135711-11.903565,3.256409-24.192719,5.342713-36.434815,7.047913-10.094574,1.406097-20.367767,1.80011-30.575592,2.030487-7.077118.159668-14.177704-.720734-21.413452-1.815735c1.433319-2.33728,2.826142-4.237732,4.620362-5.615295c15.931427-12.231903,28.845703-27.043213,34.851043-46.354248c5.118378-16.459076,8.80484-33.419007,12.21756-50.340332c5.614349-27.837647,12.430359-55.179535,26.716522-80.083374c9.157379-15.963257,20.362519-29.968933,37.075623-38.333313.20108,8.774566.474731,17.078613.408844,25.379944-.180298,22.719757-4.131043,44.776733-14.580017,65.044036-5.352051,10.381012-12.875794,19.630066-19.159027,29.554657-1.130524,1.785737-.998749,4.370636-1.449768,6.586579c2.242919.039703,4.731201.714599,6.669494-.034241c2.704804-1.044891,4.998627-3.153564,7.744171-4.995636c16.050202-11.970795,27.004792-27.430908,34.512238-45.437714c10.299682-24.703887,13.507751-50.671295,13.470642-77.200195-.00296-2.11029.481506-4.221283.739441-6.33194Z" fill="#6bcb44"/><path d="M142.054718,485.126831c-17.824776,5.566376-35.275215,3.491943-52.393829-2.894989-20.650292-7.704559-36.57034-21.72998-50.417118-38.432037-13.614157-16.421479-24.127775-34.659912-31.52588-54.627808-2.140164-5.776367-3.171001-11.961609-4.765087-17.944824-.234381-.879761-.773431-1.678314-1.562164-2.370789C1,353.645782,1,338.291534,1.000002,322.468658c.974121-2.873809,2.364284-5.196807,2.857705-7.696838c4.689838-23.762207,14.658795-45.390472,26.952617-65.987183c10.527712-17.637863,22.813833-34.025207,36.843721-49.097717c2.73793-2.941437,5.717194-3.306808,8.931976-2.342346c3.4086,1.022614,4.951394,3.708923,5.519143,7.410065c1.257698,8.199035,3.021766,16.320388,4.399536,25.047561-1.318123,2.000458-2.665314,3.307083-3.562027,4.871857-7.776001,13.569366-16.124069,26.862686-23.036675,40.862839-10.283638,20.827545-15.928371,43.159057-16.710426,66.398864-.854839,25.402741,5.836216,49.091095,18.35717,71.1792c18.742683,33.063904,42.473557,60.521576,80.501976,72.011871Z" fill="#4dc321"/><path d="M410.065125,130.892029c4.657867,11.606598,9.284729,23.225784,13.991058,34.812683c1.566833,3.857483,1.379242,7.266373-1.642883,10.405395-2.949738,3.063813-6.347474,2.275757-9.634736,1.170411-7.853393-2.640717-15.478668-6.110062-23.476654-8.13881-16.129181-4.091262-32.387756-3.079757-48.277984,1.437409-14.420197,4.099274-28.630127,8.939422-42.927033,13.470947-14.805053,4.692597-29.757446,8.610733-45.312896,10.005447-19.984925,1.791886-39.850617,2.421723-58.987549-5.046981-20.031708-7.817871-34.142609-21.4814-40.748337-42.953339c8.639526-6.414764,16.874161-12.720901,25.827881-17.745727c27.864471-15.63752,57.411362-24.85112,89.882858-21.341027c5.122772.553749,10.216431,1.376747,15.671967,2.045479c3.953888-2.801117,4.165313-4.923309.783722-7.249268-2.182709-1.501312-4.596344-2.705406-7.003724-3.835632-24.207061-11.364838-49.37741-11.684791-74.724838-5.396873-12.23201,3.034378-24.017258,7.869636-35.925247,11.562309c2.064026-2.543305,3.813721-5.040581,6.07309-6.927582c10.550979-8.81205,22.068786-16.158729,34.916275-21.128715c28.278091-10.939255,57.608383-14.658448,87.774734-12.191819c19.545838,1.598214,37.828095,7.271645,55.051514,16.642693c20.945251,11.396004,38.305603,26.976677,53.609131,45.057716c1.134765,1.340729,2.729095,2.292466,4.109802,3.425041c0,0-.067719.004731.01358.244599.372956.71846.664612,1.197052.956269,1.675644Z" fill="#6bcb44"/><path d="M142.450317,485.074829c-38.424018-11.438293-62.154892-38.895965-80.897575-71.959869-12.520954-22.088105-19.212009-45.776459-18.35717-71.1792.782055-23.239807,6.426788-45.571319,16.710426-66.398864c6.912606-14.000153,15.260674-27.293473,23.036675-40.862839.896713-1.564774,2.243904-2.871399,3.642868-4.502167c4.060035,12.781967,10.607246,24.309174,20.092834,33.839463c10.900719,10.952117,22.452591,21.254821,33.682877,31.880554c13.885788,13.138244,27.722977,26.274078,38.726105,42.125305c9.378402,13.51062,17.522003,27.597198,21.193039,43.705841c5.350967,23.480316,1.874008,45.149872-15.502472,63.829071-6.231003-2.320282-12.10138-4.691864-17.669434-7.635315-26.895157-14.217499-50.391418-32.421081-66.390762-58.850799-4.537644-7.495789-7.841759-15.738373-11.668198-23.988404-.539375-3.338775-1.076118-6.855835-5.107582-6.26062-3.790665.559692-3.860855,4.035919-3.817925,7.140228.011506.832337.021378,1.666596.084313,2.496033c1.390472,18.323944,7.241829,35.085175,17.337211,50.449616c13.906235,21.164367,32.655808,37.15216,53.682023,50.749877c5.85762,3.788178,11.781875,7.473359,17.675567,11.205781-7.688247,6.556457-15.957763,12.043579-26.45282,14.216308Z" fill="#6bcb44"/><path d="M434.621338,272.875c-16.630798,8.836182-27.835938,22.841858-36.993317,38.805115-14.286163,24.903839-21.102173,52.245727-26.716522,80.083374-3.41272,16.921325-7.099182,33.881256-12.21756,50.340332-6.00534,19.311035-18.919616,34.122345-34.851043,46.354248-1.79422,1.377563-3.187043,3.278015-4.882447,5.262787-13.708557-1.658661-27.296203-3.675934-40.895874-5.608368-3.638519-.517029-5.428222-2.880371-5.992798-6.085175-.639496-3.630035.330902-6.885772,3.708985-9.032776c16.068084-10.212463,28.692138-23.777771,35.645599-41.432678c5.050598-12.823578,8.550812-26.39978,11.384064-39.924927c5.772949-27.558746,11.673492-55.014679,25.339874-79.995056c9.95575-18.197815,22.552734-34.135193,41.924591-43.129547c13.389893-6.216919,27.47699-8.484772,42.766724-4.461059c1.022369,3.220642,1.401031,6.022186,1.779724,8.82373Z" fill="#4dc321"/><path d="M409.052551,128.604645c-1.337982-.765434-2.932312-1.717171-4.067077-3.0579-15.303528-18.081039-32.66388-33.661712-53.609131-45.057716-17.223419-9.371048-35.505676-15.044479-55.051514-16.642693-30.166351-2.466629-59.496643,1.252564-87.774734,12.191819-12.847489,4.969986-24.365296,12.316665-34.916275,21.128715-2.259369,1.887001-4.009064,4.384277-6.389267,7.091194-9.619141,5.279251-18.84256,10.067734-28.065979,14.856224-4.100403-21.031631.605285-40.152069,13.370147-57.082519c17.160294-22.760266,40.909714-34.995871,68.416962-39.875536c13.545486-2.40291,27.436691-3.920103,41.173874-3.937712c22.305572-.028597,44.00766,4.176878,63.991394,14.816036c18.056671,9.613221,33.365845,22.534943,46.696228,38.093083c14.852173,17.334213,26.607208,36.499061,36.225372,57.477005Z" fill="#4dc322"/><path d="M169.251205,470.988464c-6.24176-3.862365-12.166015-7.547546-18.023635-11.335724-21.026215-13.597717-39.775788-29.58551-53.682023-50.749877-10.095382-15.364441-15.946739-32.125672-17.337211-50.449616-.062935-.829437-.072807-1.663696-.084313-2.496033-.04293-3.104309.02726-6.580536,3.817925-7.140228c4.031464-.595215,4.568207,2.921845,5.118431,6.717438.734657,4.538086,1.216118,8.355835,2.314957,11.986755c7.658203,25.305176,23.878257,44.652283,43.56166,61.378357c24.095902,20.475647,51.850678,34.767365,80.997132,46.470856c4.298797,1.726166,9.247345,1.834198,13.895279,2.690857-1.261185,2.955719-2.58516,5.886535-3.769623,8.87268-2.047989,5.163208-5.608612,7.285218-10.582703,5.095429-15.38031-6.771118-30.597366-13.912994-46.225876-21.040894Z" fill="#97dc7c"/><path d="M138.988678,119.411926c9.413315-5.086128,18.636734-9.874611,28.176331-14.826706c12.30371-4.183441,24.088958-9.018699,36.320968-12.053077c25.347428-6.287918,50.517777-5.967965,74.724838,5.396873c2.40738,1.130226,4.821015,2.33432,7.003724,3.835632c3.381591,2.325959,3.170166,4.448151-1.060059,7.019944-14.797913-6.969948-29.930679-9.113236-45.374207-8.475685-17.955902.741264-35.227493,5.155677-51.904922,11.808204-28.432968,11.341774-53.710465,27.93161-77.712685,46.677139-3.505836,2.738022-5.86692,5.818818-6.2929,10.269257-2.087684-2.633102-4.166153-5.273559-6.265129-7.897598-3.403679-4.255158-3.507217-8.912033,1.429505-12.59047c11.806175-8.797012,23.815956-17.32138,35.77642-25.910041c1.563858-1.122986,3.32074-1.97715,5.178116-3.253472Z" fill="#97dc7c"/><path d="M434.703644,273.346802c-.460999-3.273346-.839661-6.07489-1.476715-9.172852-2.505402-12.748581-4.420563-25.272339-7.086396-37.634216-3.096557-14.359528-.439605-16.211182,13.53003-17.034485.315063,3.897446-.166474,7.386627.357483,10.717621.85028,5.405517,2.497131,10.679977,3.568023,16.057495c6.126709,30.765625,8.023499,61.612091,1.36261,92.564484-4.881897,22.68573-14.293548,43.15271-29.81485,60.632202-1.316436,1.482544-4.102996,3.093811-1.082336,5.593689-2.469696,1.653473-4.763519,3.762146-7.468323,4.807037-1.938293.74884-4.426575.073944-6.669494.034241.451019-2.215943.319244-4.800842,1.449768-6.586579c6.283233-9.924591,13.806976-19.173645,19.159027-29.554657c10.448974-20.267303,14.399719-42.324279,14.580017-65.044036.065887-8.301331-.207764-16.605378-.408844-25.379944Z" transform="translate(0 0.000001)" fill="#97dc7c"/><path d="M414.337341,394.882141c-3.296508-2.311279-.509948-3.922546.806488-5.40509c15.521302-17.479492,24.932953-37.946472,29.81485-60.632202c6.660889-30.952393,4.764099-61.798859-1.36261-92.564484-1.070892-5.377518-2.717743-10.651978-3.568023-16.057495-.523957-3.330994-.04242-6.820175.072296-10.631119c3.02771-1.119003,5.936889-2.078354,8.922516-2.512726c3.781219-.550125,8.348449,2.96843,8.928222,7.003357c1.173462,8.166901,2.206757,16.361099,3.008759,24.572266.856506,8.769302,1.379578,17.571182,2.074036,26.808243-.232148,2.560058-.716614,4.671051-.713654,6.781341.037109,26.5289-3.17096,52.496308-13.470642,77.200195-7.507446,18.006806-18.462036,33.466919-34.512238,45.437714Z" fill="#c2ebaf"/><path d="M103.019424,169.380707c.276322-4.767639,2.637406-7.848435,6.143242-10.586457c24.00222-18.745529,49.279717-35.335365,77.712685-46.677139c16.677429-6.652527,33.94902-11.06694,51.904922-11.808204c15.443528-.637551,30.576294,1.505737,45.025818,8.50547-4.83081-.469193-9.924469-1.292191-15.047241-1.84594-32.471496-3.510093-62.018387,5.703507-89.882858,21.341027-8.95372,5.024826-17.188355,11.330963-25.899353,17.36412-10.537125,9.262543-21.094177,18.027023-31.257935,27.226074-6.807625,6.161469-12.132446,5.861069-17.14798-1.803161-.353698-.540482-.929252-.935776-1.5513-1.71579Z" fill="#c2ebae"/><path d="M229.900696,477.672546c-4.719223-.467956-9.667771-.575988-13.966568-2.302154-29.146454-11.703491-56.90123-25.995209-80.997132-46.470856-19.683403-16.726074-35.903457-36.073181-43.56166-61.378357-1.098839-3.63092-1.5803-7.448669-2.358338-11.63678c3.858971,7.443238,7.163086,15.685822,11.70073,23.181611c15.999344,26.429718,39.495605,44.6333,66.390762,58.850799c5.568054,2.943451,11.438431,5.315033,17.533966,7.93457c12.707947,4.371735,24.900116,9.268769,37.440903,12.991242c10.77478,3.198242,13.086197,7.526001,7.817337,18.829925Z" fill="#c2ebaf"/><path d="M410.037842,130.587601c-.264374-.174164-.55603-.652756-.928162-1.405152.246643.184372.573731.642548.928162,1.405152Z" fill="#4dc322"/></svg>
